<?xml version="1.0" standalone="no"?>
<svg version="1.0" xmlns="http://www.w3.org/2000/svg"
 width="837.000000pt" height="837.000000pt" viewBox="0 0 837 837"
 preserveAspectRatio="xMidYMid meet">
<rect width="837" height="837" rx="42" fill="#0a0a0a"/>
<g transform="translate(418.5,418.5) scale(0.72) translate(-418.5,-418.5)">
<g transform="translate(83.5,0)">
<g transform="translate(0.000000,837.000000) scale(0.100000,-0.100000)"
fill="#D4AF37" stroke="none">
<path d="M497 7809 c-4 -216 -7 -913 -7 -1550 l0 -1157 -31 -69 c-157 -349
-226 -662 -236 -1073 -8 -340 15 -562 89 -825 32 -117 102 -304 148 -395 l27
-55 6 -1030 c4 -566 10 -1046 14 -1065 4 -19 14 -36 21 -38 9 -1 12 82 12 393
l0 395 23 0 c12 0 420 0 907 0 832 0 891 -1 980 -19 246 -50 313 -56 620 -56
310 0 435 12 612 56 74 18 126 19 1227 20 633 0 1153 4 1155 8 6 9 -214 21
-401 21 l-133 0 2 1138 c3 1132 3 1137 24 1183 29 62 79 116 133 144 56 28
159 60 224 69 46 7 47 8 47 42 l0 34 -410 0 -410 0 0 2039 c0 1121 -3 2059 -6
2085 l-7 46 219 0 c273 1 593 15 606 28 5 5 -27 11 -84 15 -51 4 -1279 7
-2729 7 l-2636 0 -6 -391z m1443 331 c209 -13 307 -25 395 -51 153 -45 254
-126 295 -237 18 -48 22 -79 22 -197 0 -125 -2 -141 -18 -153 -11 -7 -81 -53
-156 -102 -581 -377 -1099 -912 -1433 -1480 -21 -36 -64 -92 -95 -125 -114
-119 -258 -320 -361 -503 l-49 -87 0 1473 0 1472 618 0 c339 0 691 -5 782 -10z
m3150 -617 c0 -1016 -29 -1211 -191 -1293 -79 -41 -153 -27 -434 83 -355 139
-557 195 -870 242 -60 9 -120 18 -132 21 l-23 4 1 588 c0 323 4 607 7 632 l7
45 145 48 c355 118 567 170 887 217 201 29 298 37 461 39 l142 1 0 -627z
m-2437 -500 l-3 -428 -162 -27 c-490 -84 -939 -268 -1256 -515 -47 -37 -82
-60 -77 -52 36 60 162 243 228 329 227 296 545 610 852 841 127 96 398 278
415 279 3 0 4 -192 3 -427z m-1 -1750 c2 -692 1 -1264 -1 -1271 -2 -10 -193
-12 -928 -10 l-925 3 1 120 c9 588 209 1332 464 1718 199 302 434 465 852 592
138 41 417 99 507 104 l28 1 2 -1257z m860 1133 c35 -13 110 -46 168 -74 576
-281 1073 -775 1279 -1273 101 -244 131 -434 131 -821 l0 -248 -825 0 -825 0
0 1220 c0 671 2 1220 5 1220 2 0 33 -11 67 -24z m-864 -2778 l-3 -313 -28 -56
c-15 -31 -51 -79 -80 -106 -76 -72 -124 -88 -393 -129 -26 -4 -31 -8 -29 -32
l1 -27 109 -6 c61 -4 341 -7 623 -8 l512 -1 0 -761 0 -762 -137 6 c-791 35
-1592 499 -2038 1182 -158 241 -264 502 -334 820 -26 120 -51 324 -51 424 l0
81 926 0 925 0 -3 -312z m1069 270 c-86 -45 -199 -144 -246 -215 l-31 -46 0
151 0 152 178 0 177 -1 -78 -41z m309 -245 c-4 -147 -10 -271 -12 -274 -2 -4
-131 -6 -286 -6 l-283 2 -3 73 c-3 87 17 140 93 241 106 140 274 228 439 230
l59 1 -7 -267z m209 241 c236 -44 385 -117 529 -260 139 -139 221 -289 261
-477 8 -38 15 -88 15 -112 0 -42 -1 -43 -37 -48 -21 -2 -236 -5 -479 -6 l-441
-2 -6 83 c-9 107 -9 658 -1 765 l7 81 36 -5 c20 -2 72 -11 116 -19z m-465
-705 l0 -141 -28 5 c-64 13 -143 50 -185 88 -42 37 -107 143 -107 176 0 10 33
13 160 13 l160 0 0 -141z m250 -19 c0 -73 -86 -140 -167 -132 l-33 3 0 69 0
69 58 4 c142 9 142 9 142 -13z m1025 -230 c11 -18 -14 -213 -41 -317 -72 -279
-194 -495 -396 -701 -236 -240 -490 -383 -828 -464 -76 -18 -355 -40 -366 -29
-2 2 -4 346 -4 763 l0 758 814 0 c554 0 817 -3 821 -10z m-4480 -391 c27 -52
135 -199 211 -289 301 -355 801 -680 1287 -836 75 -24 84 -30 65 -37 -13 -5
-265 -6 -568 -3 -300 3 -652 6 -782 6 l-238 0 0 595 c0 327 2 595 5 595 2 0
12 -14 20 -31z m4494 -725 l31 -6 0 -214 0 -214 -577 0 -578 1 80 31 c44 18
202 93 350 168 149 76 312 154 364 175 129 51 255 74 330 59z m176 -48 c63
-29 134 -97 164 -158 22 -47 40 -139 41 -210 l0 -36 -152 5 c-84 3 -153 6
-153 7 -1 0 1 97 3 214 5 242 -6 224 97 178z"/>
</g>
</g>
</g>
</svg>
